<svg width="30" height="30" viewBox="0 0 30 30" fill="none" xmlns="http://www.w3.org/2000/svg">
<path d="M18.285 18.285L6 24L11.715 11.715L24 6M15 0C13.0302 0 11.0796 0.387987 9.25975 1.14181C7.43986 1.89563 5.78628 3.00052 4.3934 4.3934C1.58035 7.20644 0 11.0218 0 15C0 18.9782 1.58035 22.7936 4.3934 25.6066C5.78628 26.9995 7.43986 28.1044 9.25975 28.8582C11.0796 29.612 13.0302 30 15 30C18.9782 30 22.7936 28.4196 25.6066 25.6066C28.4196 22.7936 30 18.9782 30 15C30 13.0302 29.612 11.0796 28.8582 9.25975C28.1044 7.43986 26.9995 5.78628 25.6066 4.3934C24.2137 3.00052 22.5601 1.89563 20.7403 1.14181C18.9204 0.387987 16.9698 0 15 0ZM15 13.35C14.5624 13.35 14.1427 13.5238 13.8333 13.8333C13.5238 14.1427 13.35 14.5624 13.35 15C13.35 15.4376 13.5238 15.8573 13.8333 16.1667C14.1427 16.4762 14.5624 16.65 15 16.65C15.4376 16.65 15.8573 16.4762 16.1667 16.1667C16.4762 15.8573 16.65 15.4376 16.65 15C16.65 14.5624 16.4762 14.1427 16.1667 13.8333C15.8573 13.5238 15.4376 13.35 15 13.35Z" fill="black"/>
</svg>
