<svg width="31" height="20" viewBox="0 0 31 20" fill="none" xmlns="http://www.w3.org/2000/svg">
<path d="M15.5 0C16.699 0 17.8489 0.50862 18.6967 1.41397C19.5445 2.31932 20.0208 3.54723 20.0208 4.82759C20.0208 6.10794 19.5445 7.33586 18.6967 8.24121C17.8489 9.14655 16.699 9.65517 15.5 9.65517C14.301 9.65517 13.1511 9.14655 12.3033 8.24121C11.4555 7.33586 10.9792 6.10794 10.9792 4.82759C10.9792 3.54723 11.4555 2.31932 12.3033 1.41397C13.1511 0.50862 14.301 0 15.5 0ZM6.45833 3.44828C7.18167 3.44828 7.85333 3.65517 8.43458 4.02759C8.24083 6 8.78333 7.95862 9.89417 9.48966C9.24833 10.8138 7.95667 11.7241 6.45833 11.7241C5.43062 11.7241 4.445 11.2882 3.71829 10.5122C2.99159 9.73615 2.58333 8.68365 2.58333 7.58621C2.58333 6.48876 2.99159 5.43626 3.71829 4.66025C4.445 3.88423 5.43062 3.44828 6.45833 3.44828ZM24.5417 3.44828C25.5694 3.44828 26.555 3.88423 27.2817 4.66025C28.0084 5.43626 28.4167 6.48876 28.4167 7.58621C28.4167 8.68365 28.0084 9.73615 27.2817 10.5122C26.555 11.2882 25.5694 11.7241 24.5417 11.7241C23.0433 11.7241 21.7517 10.8138 21.1058 9.48966C22.2167 7.95862 22.7592 6 22.5654 4.02759C23.1467 3.65517 23.8183 3.44828 24.5417 3.44828ZM7.10417 17.5862C7.10417 14.731 10.8629 12.4138 15.5 12.4138C20.1371 12.4138 23.8958 14.731 23.8958 17.5862V20H7.10417V17.5862ZM0 20V17.931C0 16.0138 2.44125 14.4 5.74792 13.931C4.98583 14.869 4.52083 16.1655 4.52083 17.5862V20H0ZM31 20H26.4792V17.5862C26.4792 16.1655 26.0142 14.869 25.2521 13.931C28.5587 14.4 31 16.0138 31 17.931V20Z" fill="black"/>
</svg>
