<svg width="28" height="28" viewBox="0 0 28 28" fill="none" xmlns="http://www.w3.org/2000/svg">
<path d="M12.6 22.4H15.4V19.6H12.6V22.4ZM14 0C12.1615 0 10.341 0.362121 8.64243 1.06569C6.94387 1.76925 5.40053 2.80048 4.1005 4.1005C1.475 6.72601 0 10.287 0 14C0 17.713 1.475 21.274 4.1005 23.8995C5.40053 25.1995 6.94387 26.2307 8.64243 26.9343C10.341 27.6379 12.1615 28 14 28C17.713 28 21.274 26.525 23.8995 23.8995C26.525 21.274 28 17.713 28 14C28 12.1615 27.6379 10.341 26.9343 8.64243C26.2307 6.94387 25.1995 5.40053 23.8995 4.1005C22.5995 2.80048 21.0561 1.76925 19.3576 1.06569C17.659 0.362121 15.8385 0 14 0ZM14 25.2C7.826 25.2 2.8 20.174 2.8 14C2.8 7.826 7.826 2.8 14 2.8C20.174 2.8 25.2 7.826 25.2 14C25.2 20.174 20.174 25.2 14 25.2ZM14 5.6C12.5148 5.6 11.0904 6.19 10.0402 7.2402C8.99 8.29041 8.4 9.71479 8.4 11.2H11.2C11.2 10.4574 11.495 9.7452 12.0201 9.2201C12.5452 8.695 13.2574 8.4 14 8.4C14.7426 8.4 15.4548 8.695 15.9799 9.2201C16.505 9.7452 16.8 10.4574 16.8 11.2C16.8 14 12.6 13.65 12.6 18.2H15.4C15.4 15.05 19.6 14.7 19.6 11.2C19.6 9.71479 19.01 8.29041 17.9598 7.2402C16.9096 6.19 15.4852 5.6 14 5.6Z" fill="black"/>
</svg>
