<svg width="349" height="272" viewBox="0 0 349 272" fill="none" xmlns="http://www.w3.org/2000/svg">
<path d="M170.256 70.6055L58.8716 162.343V261.355C58.8716 263.918 59.89 266.377 61.7027 268.19C63.5155 270.002 65.9741 271.021 68.5377 271.021L136.237 270.846C138.792 270.833 141.238 269.809 143.041 267.997C144.843 266.186 145.855 263.735 145.855 261.179V203.358C145.855 200.794 146.873 198.336 148.686 196.523C150.499 194.71 152.957 193.692 155.521 193.692H194.185C196.749 193.692 199.208 194.71 201.02 196.523C202.833 198.336 203.852 200.794 203.852 203.358V261.137C203.848 262.409 204.095 263.669 204.579 264.846C205.063 266.022 205.774 267.091 206.672 267.992C207.57 268.893 208.637 269.607 209.812 270.095C210.986 270.583 212.246 270.834 213.518 270.834L281.193 271.021C283.756 271.021 286.215 270.002 288.028 268.19C289.84 266.377 290.859 263.918 290.859 261.355V162.277L179.499 70.6055C178.19 69.5503 176.559 68.9748 174.877 68.9748C173.196 68.9748 171.565 69.5503 170.256 70.6055ZM346.198 132.958L295.692 91.3273V7.64877C295.692 5.72606 294.928 3.8821 293.569 2.52253C292.209 1.16297 290.365 0.39917 288.442 0.39917H254.611C252.688 0.39917 250.844 1.16297 249.485 2.52253C248.125 3.8821 247.361 5.72606 247.361 7.64877V51.5149L193.273 7.01443C188.083 2.74308 181.569 0.407708 174.847 0.407708C168.125 0.407708 161.612 2.74308 156.421 7.01443L3.49669 132.958C2.76259 133.565 2.15524 134.31 1.70934 135.152C1.26344 135.993 0.987732 136.915 0.897966 137.863C0.8082 138.811 0.906137 139.768 1.18618 140.678C1.46622 141.588 1.92289 142.434 2.53007 143.168L17.9355 161.896C18.541 162.632 19.2858 163.242 20.1273 163.69C20.9687 164.138 21.8903 164.416 22.8392 164.507C23.7881 164.599 24.7457 164.502 25.6573 164.223C26.5688 163.944 27.4164 163.488 28.1514 162.881L170.256 45.8361C171.565 44.7808 173.196 44.2053 174.877 44.2053C176.559 44.2053 178.19 44.7808 179.499 45.8361L321.609 162.881C322.343 163.488 323.189 163.945 324.1 164.225C325.01 164.505 325.966 164.603 326.915 164.513C327.863 164.423 328.784 164.148 329.625 163.702C330.467 163.256 331.212 162.648 331.819 161.914L347.225 143.186C347.831 142.448 348.286 141.598 348.563 140.683C348.839 139.769 348.933 138.809 348.837 137.859C348.742 136.908 348.459 135.986 348.006 135.145C347.553 134.304 346.939 133.561 346.198 132.958Z" fill="white"/>
</svg>
