<svg width="27" height="27" viewBox="0 0 27 27" fill="none" xmlns="http://www.w3.org/2000/svg">
<path d="M16.4565 16.4565L5.4 21.6L10.5435 10.5435L21.6 5.4M13.5 0C11.7272 0 9.97167 0.349188 8.33377 1.02763C6.69588 1.70606 5.20765 2.70047 3.95406 3.95406C1.42232 6.4858 0 9.91958 0 13.5C0 17.0804 1.42232 20.5142 3.95406 23.0459C5.20765 24.2995 6.69588 25.2939 8.33377 25.9724C9.97167 26.6508 11.7272 27 13.5 27C17.0804 27 20.5142 25.5777 23.0459 23.0459C25.5777 20.5142 27 17.0804 27 13.5C27 11.7272 26.6508 9.97167 25.9724 8.33377C25.2939 6.69588 24.2995 5.20765 23.0459 3.95406C21.7924 2.70047 20.3041 1.70606 18.6662 1.02763C17.0283 0.349188 15.2728 0 13.5 0ZM13.5 12.015C13.1062 12.015 12.7284 12.1715 12.4499 12.4499C12.1715 12.7284 12.015 13.1062 12.015 13.5C12.015 13.8938 12.1715 14.2716 12.4499 14.5501C12.7284 14.8285 13.1062 14.985 13.5 14.985C13.8938 14.985 14.2716 14.8285 14.5501 14.5501C14.8285 14.2716 14.985 13.8938 14.985 13.5C14.985 13.1062 14.8285 12.7284 14.5501 12.4499C14.2716 12.1715 13.8938 12.015 13.5 12.015Z" fill="black"/>
</svg>
